<?xml version="1.0" encoding="utf-8"?>
<!-- Generator: Adobe Illustrator 19.0.0, SVG Export Plug-In . SVG Version: 6.00 Build 0)  -->
<svg version="1.1" id="Layer_1" xmlns="http://www.w3.org/2000/svg" xmlns:xlink="http://www.w3.org/1999/xlink" x="0px" y="0px"
	 viewBox="0 0 512 512" style="enable-background:new 0 0 512 512;" xml:space="preserve" fill="#ffffff" stroke="white" stroke-width="10">
<g id="XMLID_1_">
	<path id="XMLID_8_" d="M285.8,0h-59.6c-25.1,0-44.7,20.5-44.7,44.7V364l75.4,148l73.5-148V44.7C330.5,20.5,310,0,285.8,0z
		 M226.2,29.8h59.6c8.4,0,14.9,6.5,14.9,14.9v30.7h-89.4V44.7C211.3,36.3,217.8,29.8,226.2,29.8z M243,419.8L215,364.9h81l-27,54.9
		H243z M211.3,335.1V165.7h89.4v168.5h-89.4V335.1z M211.3,135.9v-30.7h89.4v30.7H211.3z"/>
</g>
</svg>
